<svg width="889" height="689" viewBox="0 0 889 689" fill="none" xmlns="http://www.w3.org/2000/svg">
<mask id="path-1-outside-1" maskUnits="userSpaceOnUse" x="0.520508" y="0.703026" width="888" height="689" fill="black">
<rect fill="white" x="0.520508" y="0.703026" width="888" height="689"/>
<path fill-rule="evenodd" clip-rule="evenodd" d="M124.506 484.533C163.982 502.753 209.836 511.863 262.066 511.863C316.119 511.863 364.402 500.627 406.916 478.156C450.036 455.685 483.44 424.407 507.126 384.323L380.497 307.799C367.743 330.27 352.559 346.668 334.947 356.993C317.334 367.318 296.988 372.48 273.91 372.48C242.936 372.48 218.946 363.977 201.941 346.972C185.543 329.359 177.344 305.977 177.344 276.825C177.344 236.741 188.579 203.945 211.051 178.437C234.129 152.929 263.281 140.175 298.507 140.175C344.057 140.175 375.942 162.039 394.162 205.767L541.744 135.62C522.916 93.1067 493.157 60.3107 452.466 37.232C411.774 13.546 363.491 1.70303 307.617 1.70303C249.313 1.70303 196.778 14.1533 150.014 39.054C103.249 63.9547 66.8088 97.9653 40.6935 141.086C14.5782 184.207 1.52051 232.793 1.52051 286.846C1.52051 331.789 12.1488 371.265 33.4055 405.276C55.2695 439.287 85.6362 465.706 124.506 484.533ZM764.496 205.156C725.019 186.936 679.166 177.826 626.935 177.826C572.882 177.826 524.599 189.061 482.086 211.533C438.965 234.004 405.562 265.282 381.876 305.366L508.505 381.89C521.259 359.418 536.442 343.02 554.055 332.696C571.668 322.371 592.013 317.209 615.092 317.209C646.066 317.209 670.056 325.711 687.061 342.717C703.459 360.329 711.658 383.712 711.658 412.864C711.658 452.948 700.422 485.744 677.951 511.252C654.872 536.76 625.72 549.514 590.495 549.514C544.945 549.514 513.06 527.65 494.84 483.922L347.258 554.069C366.085 596.582 395.845 629.378 436.536 652.457C477.227 676.143 525.51 687.986 581.385 687.986C639.689 687.986 692.223 675.535 738.988 650.635C785.753 625.734 822.193 591.723 848.308 548.603C874.423 505.482 887.481 456.895 887.481 402.843C887.481 357.9 876.853 318.423 855.596 284.413C833.732 250.402 803.365 223.983 764.496 205.156Z"/>
</mask>
<path fill-rule="evenodd" clip-rule="evenodd" d="M124.506 484.533C163.982 502.753 209.836 511.863 262.066 511.863C316.119 511.863 364.402 500.627 406.916 478.156C450.036 455.685 483.44 424.407 507.126 384.323L380.497 307.799C367.743 330.27 352.559 346.668 334.947 356.993C317.334 367.318 296.988 372.48 273.91 372.48C242.936 372.48 218.946 363.977 201.941 346.972C185.543 329.359 177.344 305.977 177.344 276.825C177.344 236.741 188.579 203.945 211.051 178.437C234.129 152.929 263.281 140.175 298.507 140.175C344.057 140.175 375.942 162.039 394.162 205.767L541.744 135.62C522.916 93.1067 493.157 60.3107 452.466 37.232C411.774 13.546 363.491 1.70303 307.617 1.70303C249.313 1.70303 196.778 14.1533 150.014 39.054C103.249 63.9547 66.8088 97.9653 40.6935 141.086C14.5782 184.207 1.52051 232.793 1.52051 286.846C1.52051 331.789 12.1488 371.265 33.4055 405.276C55.2695 439.287 85.6362 465.706 124.506 484.533ZM764.496 205.156C725.019 186.936 679.166 177.826 626.935 177.826C572.882 177.826 524.599 189.061 482.086 211.533C438.965 234.004 405.562 265.282 381.876 305.366L508.505 381.89C521.259 359.418 536.442 343.02 554.055 332.696C571.668 322.371 592.013 317.209 615.092 317.209C646.066 317.209 670.056 325.711 687.061 342.717C703.459 360.329 711.658 383.712 711.658 412.864C711.658 452.948 700.422 485.744 677.951 511.252C654.872 536.76 625.72 549.514 590.495 549.514C544.945 549.514 513.06 527.65 494.84 483.922L347.258 554.069C366.085 596.582 395.845 629.378 436.536 652.457C477.227 676.143 525.51 687.986 581.385 687.986C639.689 687.986 692.223 675.535 738.988 650.635C785.753 625.734 822.193 591.723 848.308 548.603C874.423 505.482 887.481 456.895 887.481 402.843C887.481 357.9 876.853 318.423 855.596 284.413C833.732 250.402 803.365 223.983 764.496 205.156Z" fill="#ECECEC"/>
<path d="M124.506 484.533L124.07 485.433L124.078 485.437L124.086 485.441L124.506 484.533ZM406.916 478.156L406.453 477.269L406.448 477.272L406.916 478.156ZM507.126 384.323L507.986 384.832L508.49 383.979L507.643 383.467L507.126 384.323ZM380.497 307.799L381.014 306.943L380.134 306.412L379.627 307.305L380.497 307.799ZM334.947 356.993L334.441 356.13L334.441 356.13L334.947 356.993ZM201.941 346.972L201.209 347.653L201.221 347.666L201.233 347.679L201.941 346.972ZM211.051 178.437L210.309 177.766L210.3 177.776L211.051 178.437ZM394.162 205.767L393.238 206.152L393.642 207.121L394.591 206.67L394.162 205.767ZM541.744 135.62L542.173 136.523L543.052 136.105L542.658 135.215L541.744 135.62ZM452.466 37.232L451.962 38.0963L451.972 38.1018L452.466 37.232ZM150.014 39.054L149.544 38.1713L149.544 38.1713L150.014 39.054ZM40.6935 141.086L39.8382 140.568L39.8382 140.568L40.6935 141.086ZM33.4055 405.276L32.5574 405.806L32.5643 405.817L33.4055 405.276ZM764.496 205.156L764.932 204.256L764.924 204.252L764.915 204.248L764.496 205.156ZM482.086 211.533L482.548 212.419L482.553 212.417L482.086 211.533ZM381.876 305.366L381.015 304.857L380.511 305.709L381.359 306.222L381.876 305.366ZM508.505 381.89L507.988 382.746L508.867 383.277L509.375 382.383L508.505 381.89ZM554.055 332.696L554.561 333.558L554.561 333.558L554.055 332.696ZM687.061 342.717L687.793 342.035L687.781 342.022L687.768 342.01L687.061 342.717ZM677.951 511.252L678.693 511.923L678.701 511.913L677.951 511.252ZM494.84 483.922L495.763 483.537L495.359 482.568L494.411 483.019L494.84 483.922ZM347.258 554.069L346.829 553.166L345.949 553.583L346.344 554.474L347.258 554.069ZM436.536 652.457L437.039 651.592L437.029 651.587L436.536 652.457ZM738.988 650.635L739.458 651.517L739.458 651.517L738.988 650.635ZM848.308 548.603L849.163 549.121L849.163 549.121L848.308 548.603ZM855.596 284.413L856.444 283.883L856.437 283.872L855.596 284.413ZM262.066 510.863C209.952 510.863 164.246 501.773 124.925 483.625L124.086 485.441C163.718 503.733 209.72 512.863 262.066 512.863V510.863ZM406.448 477.272C364.096 499.658 315.977 510.863 262.066 510.863V512.863C316.262 512.863 364.708 501.597 407.383 479.04L406.448 477.272ZM506.265 383.814C482.678 423.73 449.416 454.88 406.453 477.269L407.378 479.043C450.656 456.489 484.201 425.084 507.986 384.832L506.265 383.814ZM379.979 308.655L506.608 385.179L507.643 383.467L381.014 306.943L379.979 308.655ZM335.452 357.856C353.252 347.421 368.548 330.877 381.366 308.293L379.627 307.305C366.937 329.664 351.867 345.915 334.441 356.13L335.452 357.856ZM273.91 373.48C297.142 373.48 317.667 368.282 335.452 357.856L334.441 356.13C317.001 366.354 296.834 371.48 273.91 371.48V373.48ZM201.233 347.679C218.476 364.922 242.75 373.48 273.91 373.48V371.48C243.121 371.48 219.416 363.033 202.648 346.265L201.233 347.679ZM176.344 276.825C176.344 306.173 184.603 329.818 201.209 347.653L202.672 346.291C186.482 328.901 178.344 305.781 178.344 276.825H176.344ZM210.3 177.776C187.64 203.498 176.344 236.544 176.344 276.825H178.344C178.344 236.938 189.518 204.392 211.801 179.098L210.3 177.776ZM298.507 139.175C263.006 139.175 233.582 152.043 210.309 177.766L211.792 179.108C234.676 153.815 263.556 141.175 298.507 141.175V139.175ZM395.085 205.382C385.917 183.381 373.283 166.812 357.148 155.748C341.011 144.683 321.447 139.175 298.507 139.175V141.175C321.116 141.175 340.269 146.599 356.017 157.398C371.768 168.198 384.186 184.425 393.238 206.152L395.085 205.382ZM541.314 134.717L393.732 204.864L394.591 206.67L542.173 136.523L541.314 134.717ZM451.972 38.1018C492.478 61.0754 522.089 93.709 540.829 136.025L542.658 135.215C523.743 92.5043 493.836 59.5459 452.959 36.3622L451.972 38.1018ZM307.617 2.70303C363.348 2.70303 411.45 14.5145 451.962 38.0962L452.969 36.3678C412.098 12.5775 363.635 0.703026 307.617 0.703026V2.70303ZM150.484 39.9366C197.089 15.1206 249.46 2.70303 307.617 2.70303V0.703026C249.165 0.703026 196.467 13.1861 149.544 38.1713L150.484 39.9366ZM41.5489 141.604C67.5661 98.6454 103.869 64.7572 150.484 39.9366L149.544 38.1713C102.628 63.1521 66.0516 97.2853 39.8382 140.568L41.5489 141.604ZM2.52051 286.846C2.52051 232.962 15.535 184.557 41.5489 141.604L39.8382 140.568C13.6213 183.856 0.520508 232.624 0.520508 286.846H2.52051ZM34.2535 404.746C13.1078 370.913 2.52051 331.625 2.52051 286.846H0.520508C0.520508 331.953 11.1899 371.618 32.5575 405.806L34.2535 404.746ZM124.941 483.633C86.2259 464.88 56.0044 438.581 34.2467 404.735L32.5643 405.817C54.5346 439.993 85.0465 466.531 124.07 485.433L124.941 483.633ZM626.935 178.826C679.05 178.826 724.755 187.915 764.077 206.064L764.915 204.248C725.283 185.956 679.282 176.826 626.935 176.826V178.826ZM482.553 212.417C524.906 190.031 573.025 178.826 626.935 178.826V176.826C572.74 176.826 524.293 188.092 481.619 210.649L482.553 212.417ZM382.737 305.874C406.324 265.959 439.585 234.809 482.548 212.419L481.624 210.646C438.345 233.2 404.8 264.605 381.015 304.857L382.737 305.874ZM509.022 381.034L382.393 304.51L381.359 306.222L507.988 382.746L509.022 381.034ZM553.549 331.833C535.75 342.267 520.453 358.812 507.635 381.396L509.375 382.383C522.065 360.025 537.135 343.773 554.561 333.558L553.549 331.833ZM615.092 316.209C591.859 316.209 571.335 321.407 553.549 331.833L554.561 333.558C572.001 323.335 592.167 318.209 615.092 318.209V316.209ZM687.768 342.01C670.525 324.767 646.251 316.209 615.092 316.209V318.209C645.881 318.209 669.586 326.656 686.354 343.424L687.768 342.01ZM712.658 412.864C712.658 383.515 704.398 359.871 687.793 342.035L686.329 343.398C702.52 360.788 710.658 383.908 710.658 412.864H712.658ZM678.701 511.913C701.362 486.19 712.658 453.145 712.658 412.864H710.658C710.658 452.75 699.483 485.297 677.201 510.591L678.701 511.913ZM590.495 550.514C625.995 550.514 655.419 537.646 678.693 511.923L677.21 510.581C654.326 535.874 625.445 548.514 590.495 548.514V550.514ZM493.917 484.306C503.084 506.308 515.719 522.877 531.853 533.94C547.99 545.006 567.555 550.514 590.495 550.514V548.514C567.885 548.514 548.732 543.09 532.984 532.291C517.234 521.49 504.816 505.263 495.763 483.537L493.917 484.306ZM347.687 554.972L495.269 484.825L494.411 483.019L346.829 553.166L347.687 554.972ZM437.029 651.587C396.523 628.613 366.912 595.98 348.172 553.664L346.344 554.474C365.258 597.184 395.166 630.143 436.043 653.327L437.029 651.587ZM581.385 686.986C525.654 686.986 477.551 675.174 437.039 651.592L436.033 653.321C476.903 677.111 525.367 688.986 581.385 688.986V686.986ZM738.518 649.752C691.912 674.568 639.542 686.986 581.385 686.986V688.986C639.836 688.986 692.535 676.503 739.458 651.517L738.518 649.752ZM847.453 548.085C821.435 591.043 785.132 624.931 738.518 649.752L739.458 651.517C786.373 626.537 822.95 592.403 849.163 549.121L847.453 548.085ZM886.481 402.843C886.481 456.726 873.467 505.132 847.453 548.085L849.163 549.121C875.38 505.833 888.481 457.064 888.481 402.843H886.481ZM854.748 284.943C875.894 318.776 886.481 358.064 886.481 402.843H888.481C888.481 357.736 877.812 318.071 856.444 283.883L854.748 284.943ZM764.06 206.056C802.776 224.808 832.997 251.108 854.755 284.953L856.437 283.872C834.467 249.696 803.955 223.158 764.932 204.256L764.06 206.056Z" fill="black" mask="url(#path-1-outside-1)"/>
</svg>
