<svg width="909" height="709" viewBox="0 0 909 709" fill="none" xmlns="http://www.w3.org/2000/svg">
<mask id="path-1-outside-1" maskUnits="userSpaceOnUse" x="0.520508" y="0.703026" width="908" height="709" fill="black">
<rect fill="white" x="0.520508" y="0.703026" width="908" height="709"/>
<path fill-rule="evenodd" clip-rule="evenodd" d="M134.506 494.533C173.982 512.753 219.836 521.863 272.066 521.863C326.119 521.863 374.402 510.627 416.916 488.156C460.036 465.685 493.44 434.407 517.126 394.323L390.497 317.799C377.743 340.27 362.559 356.668 344.947 366.993C327.334 377.318 306.988 382.48 283.91 382.48C252.936 382.48 228.946 373.977 211.941 356.972C195.543 339.359 187.344 315.977 187.344 286.825C187.344 246.741 198.579 213.945 221.051 188.437C244.129 162.929 273.281 150.175 308.507 150.175C354.057 150.175 385.942 172.039 404.162 215.767L551.744 145.62C532.916 103.107 503.157 70.3107 462.466 47.232C421.774 23.546 373.491 11.703 317.617 11.703C259.313 11.703 206.778 24.1533 160.014 49.054C113.249 73.9547 76.8088 107.965 50.6935 151.086C24.5782 194.207 11.5205 242.793 11.5205 296.846C11.5205 341.789 22.1488 381.265 43.4055 415.276C65.2695 449.287 95.6362 475.706 134.506 494.533ZM774.496 215.156C735.019 196.936 689.166 187.826 636.935 187.826C582.882 187.826 534.599 199.061 492.086 221.533C448.965 244.004 415.562 275.282 391.876 315.366L518.505 391.89C531.259 369.418 546.442 353.02 564.055 342.696C581.668 332.371 602.013 327.209 625.092 327.209C656.066 327.209 680.056 335.711 697.061 352.717C713.459 370.329 721.658 393.712 721.658 422.864C721.658 462.948 710.422 495.744 687.951 521.252C664.872 546.76 635.72 559.514 600.495 559.514C554.945 559.514 523.06 537.65 504.84 493.922L357.258 564.069C376.085 606.582 405.845 639.378 446.536 662.457C487.227 686.143 535.51 697.986 591.385 697.986C649.689 697.986 702.223 685.535 748.988 660.635C795.753 635.734 832.193 601.723 858.308 558.603C884.423 515.482 897.481 466.895 897.481 412.843C897.481 367.9 886.853 328.423 865.596 294.413C843.732 260.402 813.365 233.983 774.496 215.156Z"/>
</mask>
<path d="M134.506 494.533L129.71 504.433L129.803 504.478L129.896 504.521L134.506 494.533ZM416.916 488.156L411.832 478.401L411.804 478.416L411.775 478.431L416.916 488.156ZM517.126 394.323L526.596 399.919L532.137 390.542L522.815 384.909L517.126 394.323ZM390.497 317.799L396.186 308.385L386.51 302.537L380.93 312.369L390.497 317.799ZM344.947 366.993L339.384 357.503L339.384 357.503L344.947 366.993ZM211.941 356.972L203.89 364.468L204.023 364.611L204.162 364.75L211.941 356.972ZM221.051 188.437L212.894 181.057L212.845 181.111L212.797 181.166L221.051 188.437ZM404.162 215.767L394.008 219.998L398.451 230.661L408.884 225.702L404.162 215.767ZM551.744 145.62L556.466 155.555L566.138 150.958L561.801 141.166L551.744 145.62ZM462.466 47.232L456.932 56.7387L456.985 56.7698L457.039 56.8002L462.466 47.232ZM160.014 49.054L154.844 39.3446L154.844 39.3446L160.014 49.054ZM50.6935 151.086L41.2846 145.388L41.2846 145.388L50.6935 151.086ZM43.4055 415.276L34.0775 421.106L34.1147 421.165L34.1526 421.224L43.4055 415.276ZM774.496 215.156L779.291 205.256L779.199 205.211L779.106 205.168L774.496 215.156ZM492.086 221.533L497.17 231.288L497.198 231.273L497.226 231.258L492.086 221.533ZM391.876 315.366L382.406 309.77L376.865 319.147L386.187 324.78L391.876 315.366ZM518.505 391.89L512.816 401.304L522.491 407.151L528.072 397.319L518.505 391.89ZM564.055 342.696L569.618 352.185L569.618 352.185L564.055 342.696ZM697.061 352.717L705.112 345.221L704.978 345.077L704.839 344.939L697.061 352.717ZM687.951 521.252L696.108 528.632L696.157 528.578L696.205 528.523L687.951 521.252ZM504.84 493.922L514.994 489.691L510.551 479.028L500.118 483.987L504.84 493.922ZM357.258 564.069L352.536 554.134L342.864 558.731L347.2 568.523L357.258 564.069ZM446.536 662.457L452.07 652.95L452.016 652.919L451.963 652.888L446.536 662.457ZM748.988 660.635L754.158 670.344L754.158 670.344L748.988 660.635ZM858.308 558.603L867.717 564.301L867.717 564.301L858.308 558.603ZM865.596 294.413L874.924 288.583L874.887 288.523L874.849 288.464L865.596 294.413ZM272.066 510.863C221.112 510.863 176.885 501.978 139.115 484.545L129.896 504.521C171.079 523.528 218.559 532.863 272.066 532.863V510.863ZM411.775 478.431C371.034 499.966 324.553 510.863 272.066 510.863V532.863C327.686 532.863 377.771 521.289 422.056 497.881L411.775 478.431ZM507.655 388.727C485.062 426.962 453.216 456.835 411.832 478.401L421.999 497.911C466.857 474.534 501.817 441.852 526.596 399.919L507.655 388.727ZM384.807 327.213L511.436 403.737L522.815 384.909L396.186 308.385L384.807 327.213ZM350.509 376.483C370.178 364.953 386.604 346.942 400.063 323.229L380.93 312.369C368.881 333.599 354.94 348.384 339.384 357.503L350.509 376.483ZM283.91 393.48C308.683 393.48 330.998 387.92 350.509 376.483L339.384 357.503C323.669 366.715 305.293 371.48 283.91 371.48V393.48ZM204.162 364.75C223.778 384.366 250.897 393.48 283.91 393.48V371.48C254.974 371.48 234.113 363.589 219.719 349.194L204.162 364.75ZM176.344 286.825C176.344 318.138 185.212 344.406 203.89 364.468L219.991 349.476C205.873 334.312 198.344 313.816 198.344 286.825H176.344ZM212.797 181.166C188.247 209.033 176.344 244.57 176.344 286.825H198.344C198.344 248.912 208.911 218.857 229.304 195.708L212.797 181.166ZM308.507 139.175C270.258 139.175 238.114 153.182 212.894 181.057L229.207 195.817C250.144 172.676 276.304 161.175 308.507 161.175V139.175ZM414.315 211.536C404.574 188.157 390.855 169.879 372.804 157.501C354.722 145.102 333.097 139.175 308.507 139.175V161.175C329.466 161.175 346.559 166.18 360.362 175.645C374.195 185.131 385.529 199.649 394.008 219.998L414.315 211.536ZM547.021 135.685L399.439 205.832L408.884 225.702L556.466 155.555L547.021 135.685ZM457.039 56.8002C495.692 78.7226 523.82 109.732 541.686 150.074L561.801 141.166C542.012 96.4811 510.622 61.8987 467.892 37.6638L457.039 56.8002ZM317.617 22.703C371.912 22.703 418.21 34.1993 456.932 56.7387L467.999 37.7253C425.338 12.8927 375.07 0.703026 317.617 0.703026V22.703ZM165.183 58.7634C210.201 34.7929 260.931 22.703 317.617 22.703V0.703026C257.694 0.703026 203.355 13.5138 154.844 39.3446L165.183 58.7634ZM60.1025 156.784C85.1385 115.446 120.074 82.7826 165.183 58.7633L154.844 39.3446C106.423 65.1268 68.4792 100.485 41.2846 145.388L60.1025 156.784ZM22.5205 296.846C22.5205 244.652 35.1033 198.062 60.1025 156.784L41.2846 145.388C14.053 190.351 0.520508 240.935 0.520508 296.846H22.5205ZM52.7335 409.446C32.6976 377.389 22.5205 339.983 22.5205 296.846H0.520508C0.520508 343.594 11.6001 385.142 34.0775 421.106L52.7335 409.446ZM139.301 484.633C102.123 466.625 73.3531 441.519 52.6585 409.328L34.1526 421.224C57.1859 457.054 89.1491 484.786 129.71 504.433L139.301 484.633ZM636.935 198.826C687.889 198.826 732.116 207.711 769.886 225.143L779.106 205.168C737.923 186.161 690.442 176.826 636.935 176.826V198.826ZM497.226 231.258C537.968 209.723 584.449 198.826 636.935 198.826V176.826C581.316 176.826 531.231 188.4 486.946 211.808L497.226 231.258ZM401.346 320.962C423.939 282.727 455.786 252.854 497.17 231.288L487.002 211.778C442.145 235.154 407.185 267.836 382.406 309.77L401.346 320.962ZM524.194 382.475L397.565 305.951L386.187 324.78L512.816 401.304L524.194 382.475ZM558.492 333.206C538.823 344.736 522.397 362.747 508.938 386.46L528.072 397.319C540.121 376.09 554.061 361.305 569.618 352.185L558.492 333.206ZM625.092 316.209C600.318 316.209 578.003 321.769 558.492 333.206L569.618 352.185C585.332 342.974 603.709 338.209 625.092 338.209V316.209ZM704.839 344.939C685.223 325.323 658.105 316.209 625.092 316.209V338.209C654.027 338.209 674.888 346.1 689.283 360.495L704.839 344.939ZM732.658 422.864C732.658 391.551 723.79 365.282 705.112 345.221L689.01 360.212C703.128 375.376 710.658 395.872 710.658 422.864H732.658ZM696.205 528.523C720.754 500.656 732.658 465.118 732.658 422.864H710.658C710.658 460.777 700.09 490.831 679.697 513.98L696.205 528.523ZM600.495 570.514C638.744 570.514 670.887 556.507 696.108 528.632L679.794 513.872C658.857 537.012 632.697 548.514 600.495 548.514V570.514ZM494.686 498.152C504.428 521.532 518.146 539.81 536.198 552.188C554.28 564.587 575.904 570.514 600.495 570.514V548.514C579.536 548.514 562.443 543.509 548.64 534.044C534.806 524.558 523.472 510.039 514.994 489.691L494.686 498.152ZM361.98 574.004L509.562 503.857L500.118 483.987L352.536 554.134L361.98 574.004ZM451.963 652.888C413.31 630.966 385.182 599.956 367.316 559.615L347.2 568.523C366.989 613.208 398.379 647.79 441.109 672.025L451.963 652.888ZM591.385 686.986C537.09 686.986 490.791 675.489 452.07 652.95L441.002 671.963C483.663 696.796 533.931 708.986 591.385 708.986V686.986ZM743.818 650.925C698.8 674.896 648.071 686.986 591.385 686.986V708.986C651.307 708.986 705.646 696.175 754.158 670.344L743.818 650.925ZM848.899 552.904C823.863 594.243 788.927 626.906 743.818 650.925L754.158 670.344C802.578 644.562 840.522 609.204 867.717 564.301L848.899 552.904ZM886.481 412.843C886.481 465.037 873.898 511.627 848.899 552.904L867.717 564.301C894.948 519.337 908.481 468.754 908.481 412.843H886.481ZM856.268 300.243C876.304 332.3 886.481 369.706 886.481 412.843H908.481C908.481 366.094 897.401 324.547 874.924 288.583L856.268 300.243ZM769.701 225.055C806.878 243.063 835.648 268.169 856.343 300.361L874.849 288.464C851.816 252.635 819.852 224.903 779.291 205.256L769.701 225.055Z" fill="#ECECEC" mask="url(#path-1-outside-1)"/>
</svg>
