<svg width="887" height="688" viewBox="0 0 887 688" fill="none" xmlns="http://www.w3.org/2000/svg">
<path fill-rule="evenodd" clip-rule="evenodd" d="M123.579 483.65C163.056 501.87 208.909 510.98 261.14 510.98C315.193 510.98 363.476 499.745 405.989 477.273C449.11 454.802 482.513 423.524 506.199 383.44L379.57 306.916C366.816 329.388 351.633 345.786 334.02 356.11C316.407 366.435 296.062 371.597 272.983 371.597C242.009 371.597 218.019 363.095 201.014 346.089C184.616 328.477 176.417 305.094 176.417 275.942C176.417 235.858 187.653 203.062 210.124 177.554C233.203 152.046 262.355 139.292 297.58 139.292C343.13 139.292 375.015 161.156 393.235 204.884L540.817 134.737C521.99 92.224 492.23 59.4279 451.539 36.3493C410.848 12.6633 362.565 0.820312 306.69 0.820312C248.386 0.820312 195.852 13.2706 149.087 38.1713C102.322 63.072 65.8823 97.0826 39.767 140.203C13.6517 183.324 0.593994 231.911 0.593994 285.963C0.593994 330.906 11.2223 370.383 32.479 404.393C54.343 438.404 84.7097 464.823 123.579 483.65ZM763.57 204.273C724.093 186.053 678.239 176.943 626.009 176.943C571.956 176.943 523.673 188.179 481.16 210.65C438.039 233.121 404.635 264.399 380.949 304.483L507.578 381.007C520.333 358.536 535.516 342.138 553.128 331.813C570.741 321.488 591.087 316.326 614.166 316.326C645.14 316.326 669.129 324.829 686.135 341.834C702.533 359.447 710.732 382.829 710.732 411.981C710.732 452.065 699.496 484.861 677.025 510.369C653.946 535.877 624.794 548.631 589.568 548.631C544.018 548.631 512.134 526.767 493.914 483.039L346.331 553.186C365.159 595.699 394.918 628.495 435.609 651.574C476.301 675.26 524.584 687.103 580.458 687.103C638.763 687.103 691.297 674.653 738.062 649.752C784.826 624.851 821.266 590.841 847.382 547.72C873.497 504.599 886.555 456.013 886.555 401.96C886.555 357.017 875.926 317.541 854.669 283.53C832.806 249.519 802.439 223.1 763.57 204.273Z"/>
</svg>
