<svg width="920" height="720" viewBox="0 0 920 720" fill="none" xmlns="http://www.w3.org/2000/svg">
<g filter="url(#filter0_ddddii)">
<path fill-rule="evenodd" clip-rule="evenodd" d="M138.051 497.83C177.527 516.05 223.381 525.16 275.612 525.16C329.664 525.16 377.947 513.924 420.461 491.453C463.581 468.982 496.985 437.704 520.671 397.62L394.042 321.096C381.288 343.567 366.104 359.965 348.492 370.29C330.879 380.615 310.533 385.777 287.455 385.777C256.481 385.777 232.491 377.274 215.486 360.269C199.088 342.656 190.889 319.274 190.889 290.122C190.889 250.038 202.124 217.242 224.596 191.734C247.674 166.226 276.826 153.472 312.052 153.472C357.602 153.472 389.487 175.336 407.707 219.064L555.289 148.917C536.461 106.404 506.702 73.6076 466.011 50.529C425.319 26.843 377.036 15 321.162 15C262.858 15 210.323 27.4503 163.559 52.351C116.794 77.2516 80.3539 111.262 54.2386 154.383C28.1232 197.504 15.0656 246.09 15.0656 300.143C15.0656 345.086 25.6939 384.562 46.9506 418.573C68.8146 452.584 99.1812 479.003 138.051 497.83ZM778.041 218.453C738.564 200.233 692.711 191.123 640.48 191.123C586.427 191.123 538.144 202.358 495.631 224.83C452.51 247.301 419.107 278.579 395.421 318.663L522.05 395.187C534.804 372.715 549.987 356.317 567.6 345.993C585.213 335.668 605.558 330.506 628.637 330.506C659.611 330.506 683.601 339.008 700.606 356.014C717.004 373.626 725.203 397.009 725.203 426.161C725.203 466.245 713.967 499.041 691.496 524.549C668.417 550.057 639.265 562.811 604.04 562.811C558.49 562.811 526.605 540.947 508.385 497.219L360.803 567.366C379.63 609.879 409.39 642.675 450.081 665.754C490.772 689.44 539.055 701.283 594.93 701.283C653.234 701.283 705.768 688.832 752.533 663.932C799.298 639.031 835.738 605.02 861.853 561.9C887.968 518.779 901.026 470.192 901.026 416.14C901.026 371.197 890.398 331.72 869.141 297.71C847.277 263.699 816.91 237.28 778.041 218.453Z" fill="url(#paint0_linear)"/>
</g>
<defs>
<filter id="filter0_ddddii" x="0.0655518" y="0" width="918.961" height="719.283" filterUnits="userSpaceOnUse" color-interpolation-filters="sRGB">
<feFlood flood-opacity="0" result="BackgroundImageFix"/>
<feColorMatrix in="SourceAlpha" type="matrix" values="0 0 0 0 0 0 0 0 0 0 0 0 0 0 0 0 0 0 127 0"/>
<feOffset dx="5" dy="5"/>
<feGaussianBlur stdDeviation="6.5"/>
<feColorMatrix type="matrix" values="0 0 0 0 0.372549 0 0 0 0 0.298039 0 0 0 0 0.0470588 0 0 0 0.9 0"/>
<feBlend mode="normal" in2="BackgroundImageFix" result="effect1_dropShadow"/>
<feColorMatrix in="SourceAlpha" type="matrix" values="0 0 0 0 0 0 0 0 0 0 0 0 0 0 0 0 0 0 127 0"/>
<feOffset dx="-5" dy="-5"/>
<feGaussianBlur stdDeviation="5"/>
<feColorMatrix type="matrix" values="0 0 0 0 1 0 0 0 0 1 0 0 0 0 0.180392 0 0 0 0.9 0"/>
<feBlend mode="normal" in2="effect1_dropShadow" result="effect2_dropShadow"/>
<feColorMatrix in="SourceAlpha" type="matrix" values="0 0 0 0 0 0 0 0 0 0 0 0 0 0 0 0 0 0 127 0"/>
<feOffset dx="5" dy="-5"/>
<feGaussianBlur stdDeviation="5"/>
<feColorMatrix type="matrix" values="0 0 0 0 0.372549 0 0 0 0 0.298039 0 0 0 0 0.0470588 0 0 0 0.2 0"/>
<feBlend mode="normal" in2="effect2_dropShadow" result="effect3_dropShadow"/>
<feColorMatrix in="SourceAlpha" type="matrix" values="0 0 0 0 0 0 0 0 0 0 0 0 0 0 0 0 0 0 127 0"/>
<feOffset dx="-5" dy="5"/>
<feGaussianBlur stdDeviation="5"/>
<feColorMatrix type="matrix" values="0 0 0 0 0.372549 0 0 0 0 0.298039 0 0 0 0 0.0470588 0 0 0 0.2 0"/>
<feBlend mode="normal" in2="effect3_dropShadow" result="effect4_dropShadow"/>
<feBlend mode="normal" in="SourceGraphic" in2="effect4_dropShadow" result="shape"/>
<feColorMatrix in="SourceAlpha" type="matrix" values="0 0 0 0 0 0 0 0 0 0 0 0 0 0 0 0 0 0 127 0" result="hardAlpha"/>
<feOffset dx="-1" dy="-1"/>
<feGaussianBlur stdDeviation="1"/>
<feComposite in2="hardAlpha" operator="arithmetic" k2="-1" k3="1"/>
<feColorMatrix type="matrix" values="0 0 0 0 0.372549 0 0 0 0 0.298039 0 0 0 0 0.0470588 0 0 0 0.5 0"/>
<feBlend mode="normal" in2="shape" result="effect5_innerShadow"/>
<feColorMatrix in="SourceAlpha" type="matrix" values="0 0 0 0 0 0 0 0 0 0 0 0 0 0 0 0 0 0 127 0" result="hardAlpha"/>
<feOffset dx="1" dy="1"/>
<feGaussianBlur stdDeviation="1"/>
<feComposite in2="hardAlpha" operator="arithmetic" k2="-1" k3="1"/>
<feColorMatrix type="matrix" values="0 0 0 0 1 0 0 0 0 1 0 0 0 0 0.180392 0 0 0 0.3 0"/>
<feBlend mode="normal" in2="effect5_innerShadow" result="effect6_innerShadow"/>
</filter>
<linearGradient id="paint0_linear" x1="15.0656" y1="15" x2="679.561" y2="872.834" gradientUnits="userSpaceOnUse">
<stop stop-color="#F9C91E"/>
<stop offset="1" stop-color="#E1B51C"/>
</linearGradient>
</defs>
</svg>
