<?xml version="1.0"?>
<svg xmlns="http://www.w3.org/2000/svg" id="Capa_1" enable-background="new 0 0 513 513" height="512px" viewBox="0 0 513 513" width="512px" class=""><g><link xmlns="" type="text/css" rel="stylesheet" id="dark-mode-general-link" style="fill:null"/><link xmlns="" type="text/css" rel="stylesheet" id="dark-mode-custom-link" style="fill:null"/><style xmlns="" type="text/css" id="dark-mode-custom-style" style="fill:null"/><g><g><g><path d="m428.225 8c-31.063 4.235-64.503 25.401-90.747 58.768l85.123 54.61c17.04-41.461 18.577-83.297 5.624-113.378z" fill="#beebeb" data-original="#BEEBEB" class="" style="fill:#ECECEC" data-old_color="#beebeb"/></g><g><circle cx="261.526" cy="280.548" fill="#beebeb" r="224.452" data-original="#BEEBEB" class="" style="fill:#ECECEC" data-old_color="#beebeb"/></g><g><ellipse cx="317.639" cy="372.734" fill="#00d2dc" rx="72.145" ry="76.153" data-original="#00D2DC" class="" style="fill:#ECECEC" data-old_color="#00d2dc"/></g><g><circle cx="301.606" cy="352.694" fill="#0096d2" r="16.032" data-original="#0096D2" class="active-path" style="fill:#00000000" data-old_color="#0096d2"/></g><g><circle cx="357.719" cy="352.694" fill="#0096d2" r="16.032" data-original="#0096D2" class="active-path" style="fill:#00000000" data-old_color="#0096d2"/></g><g><circle cx="213.429" cy="264.516" fill="#0096d2" r="24.048" data-original="#0096D2" class="active-path" style="fill:#00000000" data-old_color="#0096d2"/></g><g><circle cx="225.453" cy="252.492" fill="#fff" r="12.024" data-original="#FFF" class="" data-old_color="#fff" style="fill:#FFF"/></g><g><circle cx="389.784" cy="264.516" fill="#0096d2" r="24.048" data-original="#0096D2" class="active-path" style="fill:#00000000" data-old_color="#0096d2"/></g><g><circle cx="401.808" cy="252.492" fill="#fff" r="12.024" data-original="#FFF" class="" data-old_color="#fff" style="fill:#FFF"/></g><path d="m101.203 264.516c0-52.14 17.267-100.183 46.26-138.951-1.412-.933-2.76-1.969-4.051-3.079 5.442-8.37 6.341-19.307 1.138-28.545-.048-.086-.096-.171-.145-.257-27.565-48.781-70.006-80.402-108.749-85.684-15.465 35.914-10.275 88.584 17.29 137.365 4.483 7.933 9.364 15.404 14.554 22.388-19.33 33.134-30.426 71.657-30.426 112.795 0 123.961 100.49 224.452 224.452 224.452 20.963 0 41.228-2.936 60.477-8.311-122.966-6.079-220.8-107.698-220.8-232.173z" fill="#00d2dc" data-original="#00D2DC" class="" style="fill:#ECECEC" data-old_color="#00d2dc"/></g><g fill="#283c64"><path d="m431.126 121.602c16.399-41.612 18.099-85.062 4.447-116.766-1.421-3.3-4.866-5.247-8.428-4.763-32.909 4.487-66.997 26.025-93.943 59.242-22.853-7.377-46.968-11.219-71.675-11.219-41.066 0-81.158 10.778-116.438 31.228-28.002-43.845-68.681-73.842-108.353-79.251-3.556-.482-7.007 1.462-8.428 4.763-17.062 39.623-10.29 94.979 17.673 144.465 3.681 6.513 7.701 12.847 11.992 18.925-18.91 34.212-28.899 72.99-28.899 112.322 0 62.09 24.179 120.464 68.083 164.368s102.279 68.084 164.369 68.084 120.464-24.179 164.368-68.084 68.083-102.278 68.083-164.368c.001-59.571-22.269-115.713-62.851-158.946zm-7.991-104.604c8.88 25.678 7.241 59.151-4.473 92.268-20.632-18.966-44.126-33.815-69.48-44.129 21.988-25.598 48.326-42.751 73.953-48.139zm-387.026 53.92c-2.354-19.894-.75-38.383 4.633-53.916 16.083 3.403 32.749 11.569 48.576 23.849 18.689 14.5 35.329 34.131 48.124 56.772l.137.244c2.505 4.448 3.097 9.663 1.668 14.684-1.495 5.25-5.108 9.778-9.914 12.422-2.757 1.517-5.482 3.042-8.17 4.564l-2.332-19.289c-.53-4.386-4.515-7.506-8.902-6.982-4.387.53-7.513 4.516-6.982 8.902l3.156 26.109c-.601.356-1.209.716-1.803 1.07l-11.173-12.442c-2.952-3.287-8.009-3.559-11.297-.607-3.287 2.952-3.559 8.01-.607 11.297l9.17 10.212c-7.235 4.484-13.63 8.573-18.818 11.952-4.185-5.87-8.093-12.01-11.664-18.33-12.792-22.638-21.023-47.02-23.802-70.511zm378.471 362.685c-40.882 40.882-95.238 63.397-153.054 63.397s-112.172-22.515-153.055-63.397-63.397-95.238-63.397-153.055c0-34.994 8.508-69.5 24.614-100.282 12.6-8.334 41.225-26.895 67.359-41.276 8.521-4.689 14.932-12.729 17.588-22.059 2.278-8.002 1.721-16.309-1.539-23.755 32.847-19.043 70.181-29.08 108.43-29.08 57.816 0 112.172 22.515 153.054 63.397s63.397 95.238 63.397 153.054-22.515 112.174-63.397 153.056z" data-original="#283C64" class="" style="fill:#00000000" data-old_color="#283C64"/><path d="m317.639 288.581c-44.192 0-80.145 37.751-80.145 84.153s35.953 84.153 80.145 84.153 80.145-37.751 80.145-84.153-35.953-84.153-80.145-84.153zm0 152.306c-35.37 0-64.145-30.573-64.145-68.153s28.775-68.153 64.145-68.153c20.663 0 39.062 10.444 50.802 26.614-3.23-1.617-6.87-2.533-10.721-2.533-13.251 0-24.032 10.781-24.032 24.032s10.781 24.032 24.032 24.032c10.728 0 19.834-7.066 22.914-16.788.745 4.147 1.15 8.422 1.15 12.796 0 37.58-28.776 68.153-64.145 68.153zm48.112-88.194c0 4.429-3.603 8.032-8.032 8.032s-8.032-3.603-8.032-8.032 3.603-8.032 8.032-8.032 8.032 3.603 8.032 8.032z" data-original="#283C64" class="" style="fill:#00000000" data-old_color="#283C64"/><path d="m325.639 352.693c0-13.251-10.781-24.032-24.032-24.032s-24.032 10.781-24.032 24.032 10.781 24.032 24.032 24.032 24.032-10.78 24.032-24.032zm-32.065 0c0-4.429 3.603-8.032 8.032-8.032s8.032 3.603 8.032 8.032-3.603 8.032-8.032 8.032-8.032-3.602-8.032-8.032z" data-original="#283C64" class="" style="fill:#00000000" data-old_color="#283C64"/><path d="m354.296 402.256c-8.958-6.281-18.594-9.466-28.641-9.466s-19.683 3.185-28.641 9.466c-3.618 2.537-4.494 7.525-1.958 11.143 2.537 3.618 7.526 4.494 11.143 1.958 6.214-4.357 12.76-6.566 19.456-6.566s13.241 2.209 19.456 6.566c1.397.98 2.999 1.45 4.586 1.45 2.52 0 5-1.188 6.557-3.408 2.536-3.617 1.66-8.606-1.958-11.143z" data-original="#283C64" class="" style="fill:#00000000" data-old_color="#283C64"/><path d="m237.478 256.516c-4.418 0-8 3.582-8 8 0 8.849-7.2 16.048-16.049 16.048s-16.048-7.199-16.048-16.048 7.199-16.048 16.048-16.048c1.684 0 4.297 1.027 4.297 1.027.78.239 1.569.353 2.345.353 3.424 0 6.592-2.216 7.646-5.66 1.293-4.225-1.083-8.698-5.308-9.991l-30.687-9.394c-4.223-1.295-8.698 1.083-9.991 5.308s1.083 8.698 5.308 9.991l4.231 1.295c-6.088 5.837-9.889 14.04-9.889 23.12 0 17.671 14.377 32.048 32.048 32.048 17.672 0 32.049-14.377 32.049-32.048 0-4.419-3.582-8.001-8-8.001z" data-original="#283C64" class="" style="fill:#00000000" data-old_color="#283C64"/><path d="m413.832 256.516c-4.418 0-8 3.582-8 8 0 8.849-7.199 16.048-16.048 16.048s-16.048-7.199-16.048-16.048c0-6.842 4.319-12.916 10.764-15.16l25.927-7.575c4.241-1.239 6.674-5.682 5.436-9.923-1.239-4.241-5.682-6.674-9.923-5.436l-26.103 7.626c-.106.031-.212.065-.317.1-13.029 4.403-21.783 16.606-21.783 30.367 0 17.671 14.377 32.048 32.048 32.048s32.048-14.377 32.048-32.048c-.001-4.417-3.582-7.999-8.001-7.999z" data-original="#283C64" class="" style="fill:#00000000" data-old_color="#283C64"/></g></g></g> </svg>
